<?xml version="1.0" encoding="UTF-8"?>
<!DOCTYPE svg PUBLIC "-//W3C//DTD SVG 1.1//EN" "http://www.w3.org/Graphics/SVG/1.1/DTD/svg11.dtd">
<!-- Creator: CorelDRAW X6 -->
<svg xmlns="http://www.w3.org/2000/svg" xml:space="preserve" width="65mm" height="39mm" version="1.1" style="shape-rendering:geometricPrecision; text-rendering:geometricPrecision; image-rendering:optimizeQuality; fill-rule:evenodd; clip-rule:evenodd"
viewBox="0 0 6500 3900"
 xmlns:xlink="http://www.w3.org/1999/xlink">
 <defs>
  <style type="text/css">
   <![CDATA[
    .fil1 {fill:#00A0E3}
    .fil0 {fill:#00A0E3;fill-rule:nonzero}
   ]]>
  </style>
 </defs>
 <g id="Layer_x0020_1">
  <metadata id="CorelCorpID_0Corel-Layer"/>
  <g id="_938259136">
   <path class="fil0" d="M18 52l312 0 0 385 -55 0 0 -332 -204 0 0 332 -53 0 0 -385zm555 0l148 0c55,7 89,30 100,70 5,7 7,26 5,58 -10,67 -65,96 -163,88l-38 0 0 168 -53 0 0 -385zm53 53l0 111 100 0c25,0 41,-14 48,-43l0 -23c-2,-39 -51,-54 -148,-45zm597 -58c84,3 142,38 173,103 15,27 22,65 20,116 -10,77 -47,130 -111,158 -23,13 -58,19 -103,18 -89,-15 -143,-59 -163,-131 -7,-15 -10,-40 -10,-75 3,-77 35,-132 96,-163 30,-18 63,-27 98,-25zm-5 43c-65,0 -109,39 -131,118 -12,75 8,132 60,168 25,17 58,23 98,20 55,-7 93,-44 113,-111 3,-7 4,-29 3,-65 -2,-57 -34,-99 -98,-126l-45 -5zm472 -38l206 0 0 332 45 0 0 128 -55 0 0 -75 -276 0 0 75 -55 0 0 -128 43 0c52,-87 83,-198 93,-332zm48 50c-12,97 -39,190 -80,279l0 3 183 0 0 -282 -103 0zm381 -50l58 0 103 171 88 -171 63 0 -196 367c-5,17 -35,23 -91,18l0 -53 43 0c8,5 27,-23 55,-85l10 -25 -133 -221zm504 0l80 0 93 309 93 -309 80 0 0 385 -55 0 0 -292 -13 38 -73 254 -58 0 -93 -294 0 294 -55 0 0 -385zm670 0l60 0 151 385 -63 0 -30 -80 -181 0 -30 80 -63 0 156 -385zm28 58l-70 191 143 0 -73 -191zm371 -58l53 0 0 156 199 0 0 -156 55 0 0 385 -55 0 0 -176 -199 0 0 176 -53 0 0 -385zm524 0l53 0 0 156 199 0 0 -156 55 0 0 385 -55 0 0 -176 -199 0 0 176 -53 0 0 -385zm484 0l55 0 0 151 100 0c64,5 99,42 106,111l0 25c-5,70 -55,103 -151,98l-111 0 0 -385zm55 199l0 138 100 0c35,-7 53,-26 53,-58l0 -25c-3,-40 -28,-59 -75,-55l-78 0zm276 -199l55 0 0 385 -55 0 0 -385zm258 0l254 0 0 53 -201 0 0 103 196 0 0 53 -196 0 0 121 201 0 0 55 -254 0 0 -385zm-5242 643l148 0c55,7 89,30 100,70 5,7 7,26 5,58 -10,67 -65,96 -163,88l-38 0 0 168 -53 0 0 -385zm53 53l0 111 100 0c25,0 41,-14 48,-43l0 -23c-2,-39 -51,-54 -148,-45zm469 -53l254 0 0 53 -201 0 0 103 196 0 0 53 -196 0 0 121 201 0 0 55 -254 0 0 -385zm436 0l55 0 0 329 136 0 0 -329 53 0 0 329 128 0 0 -329 53 0 0 385 -425 0 0 -385zm612 0l254 0 0 53 -201 0 0 103 196 0 0 53 -196 0 0 121 201 0 0 55 -254 0 0 -385zm499 0l53 0 0 156 199 0 0 -156 55 0 0 385 -55 0 0 -176 -199 0 0 176 -53 0 0 -385zm527 0l53 0 0 339 196 -339 55 0 0 385 -55 0 0 -327 -194 327 -55 0 0 -385zm695 0l123 0 0 385 -53 0 0 -153 -88 0 -80 153 -65 0 103 -173c-45,-23 -68,-58 -68,-103 5,-50 28,-83 68,-98 8,-7 28,-10 60,-10zm-15 53c-35,2 -54,16 -58,43 -5,37 7,62 35,75 0,7 28,9 83,8l25 0 0 -126 -85 0z"/>
   <path class="fil0" d="M3627 2982c-112,41 -231,33 -331,-14 -100,-47 -182,-131 -224,-243l-1 -2c-41,-113 -33,-231 14,-331 47,-100 131,-182 243,-223l2 -1c80,-29 163,-33 241,-16 79,17 152,57 210,113l980 674 -4 128c73,36 128,60 184,72 55,12 114,15 193,11l58 -148 29 2c55,4 109,1 162,-7 53,-9 106,-24 159,-45l29 -12 87 115c76,-29 130,-52 178,-82 48,-30 92,-68 149,-127l-64 -127 20 -21c43,-44 81,-91 114,-141 33,-50 61,-103 82,-158l10 -25 191 -2c31,-71 51,-123 61,-175 11,-52 13,-109 10,-191l-157 -44 0 -31c0,-60 -5,-120 -17,-179 -12,-59 -30,-117 -55,-174l-11 -26 108 -101c-51,-157 -72,-212 -198,-319l-163 59 -18 -20c-36,-41 -78,-77 -126,-109 -48,-32 -102,-60 -162,-83l-27 -10 4 -140c-150,-68 -198,-89 -351,-86l-46 135 -29 0c-63,-1 -125,5 -186,17 -61,12 -120,30 -178,53l-26 11 -104 -112c-77,29 -130,53 -176,83 -45,30 -86,66 -138,121l68 139 -140 188 524 366c62,-104 149,-171 244,-202 52,-17 106,-23 159,-20 53,4 105,18 154,41 101,49 186,139 228,267 34,104 23,214 -20,310 -32,71 -83,134 -146,179 -64,46 -141,74 -227,74 -104,1 -219,-38 -336,-134l-942 -655 19 -159c-143,-74 -193,-96 -355,-100l-72 150 -26 -1c-53,-2 -108,3 -163,14 -56,11 -114,30 -172,54l-28 11 -98 -122c-86,30 -144,51 -193,79 -47,26 -87,59 -138,110l58 137 -22 19c-46,40 -87,84 -124,130 -37,47 -69,97 -96,150l-12 24 -163 -11c-39,73 -62,125 -76,178 -13,52 -17,107 -18,186l153 56 0 28c1,62 7,123 19,184 12,61 29,121 52,179l11 29 -127 93c29,84 51,141 78,189 27,47 60,86 112,135l143 -51 18 19c43,46 88,86 135,119 47,33 97,60 149,81l28 11 -15 158c76,39 127,64 178,79 50,14 102,19 180,19l66 -137 25 0c62,0 123,-5 183,-13 59,-8 117,-21 173,-38l26 -8 91 114c78,-28 135,-52 187,-82 51,-30 96,-67 152,-121l-61 -121 181 -223 -525 -360c-21,37 -48,71 -79,101 -42,39 -92,71 -149,92zm-297 -87c82,38 178,45 270,12 47,-17 87,-43 121,-75 35,-33 63,-73 82,-117l19 -45 676 463 -203 251 64 127 -20 21c-70,71 -125,117 -188,154 -62,37 -131,65 -229,99l-27 9 -93 -116c-52,14 -105,25 -159,33 -55,8 -111,12 -169,13l-66 136 -25 0c-101,2 -165,-3 -228,-21 -63,-18 -123,-48 -217,-98l-24 -13 14 -152c-47,-21 -93,-47 -137,-78 -45,-32 -89,-69 -130,-110l-139 50 -18 -16c-69,-63 -111,-111 -146,-171 -34,-59 -59,-127 -94,-231l-9 -28 126 -92c-19,-54 -34,-109 -45,-164 -11,-56 -17,-113 -19,-171l-154 -56 0 -28c-1,-102 3,-169 20,-234 17,-66 46,-128 95,-219l12 -23 162 11c27,-49 57,-96 92,-140 34,-43 71,-83 113,-122l-56 -133 18 -19c66,-69 115,-110 176,-144 60,-33 128,-58 233,-94l27 -9 96 120c54,-20 107,-36 159,-47 53,-11 105,-16 156,-16l72 -149 26 0c211,3 258,27 437,120l30 15 -20 166 903 628 3 2c101,84 199,118 285,117 68,-1 130,-23 181,-60 52,-37 93,-88 119,-147 35,-78 44,-167 17,-251 -34,-105 -104,-179 -186,-219 -39,-19 -81,-30 -124,-33 -43,-3 -87,2 -128,16 -87,28 -167,94 -219,201l-21 43 -668 -466 160 -215 -71 -146 19 -20c67,-71 115,-117 172,-154 57,-37 120,-65 217,-101l25 -9 103 111c55,-21 110,-37 167,-48 56,-11 114,-17 173,-18l45 -133 28 -1c197,-8 244,14 423,95l41 19 -4 137c55,23 105,50 151,80 46,30 86,64 123,102l156 -56 18 15c163,135 182,192 245,384l12 36 -105 97c22,54 38,109 49,164 11,54 17,109 18,164l154 43 1 29c5,105 3,174 -10,240 -13,66 -37,126 -77,216l-11 24 -189 2c-22,52 -49,102 -80,148 -31,46 -65,90 -104,132l63 126 -19 20c-71,77 -125,124 -185,161 -60,37 -125,63 -221,99l-28 11 -86 -114c-48,18 -98,31 -147,39 -50,8 -100,11 -151,10l-55 141 -26 2c-100,7 -171,5 -241,-11 -69,-16 -135,-44 -226,-91l-23 -12 4 -135 -950 -653 -3 -3c-48,-47 -108,-80 -173,-94 -63,-14 -131,-11 -196,13l0 0c-91,33 -161,101 -199,183 -38,82 -45,178 -12,270l0 0c33,91 101,161 183,199z"/>
   <g>
    <polygon class="fil1" points="22,2610 27,1412 352,1412 352,1774 810,1408 1544,1408 1344,2010 1489,2010 1489,2336 1048,2336 1235,2611 840,2611 515,2138 772,1932 939,2175 1145,1561 350,2200 350,2610 "/>
    <path class="fil1" d="M1550 2609l1 -816 326 0c0,382 0,398 0,816l-328 0z"/>
   </g>
  </g>
 </g>
</svg>
